<svg width="1024" height="1024" viewBox="0 0 1024 1024" fill="none" xmlns="http://www.w3.org/2000/svg">
<g clip-path="url(#clip0_471_544)">
<path d="M1011.34 511.98C1011.34 787.859 787.743 1011.5 511.922 1011.5C236.101 1011.5 12.5 787.859 12.5 511.98C12.5 236.1 236.101 12.4596 511.922 12.4596C787.743 12.4596 1011.34 236.1 1011.34 511.98Z" fill="#234E70" stroke="#FBFAF4" stroke-width="25"/>
<rect x="259" y="212" width="35" height="177" fill="#FBFAF4"/>
<rect x="259" y="477" width="35" height="335" fill="#FBFAF4"/>
<rect x="197" y="442" width="160" height="35" fill="#FBFAF4"/>
<rect x="197" y="389" width="160" height="35" fill="#FBFAF4"/>
<rect x="495" y="212" width="35" height="274" fill="#FBFAF4"/>
<rect x="495" y="547" width="35" height="265" fill="#FBFAF4"/>
<rect x="433" y="539" width="160" height="35" fill="#FBFAF4"/>
<rect x="433" y="486" width="160" height="35" fill="#FBFAF4"/>
<rect x="731" y="212" width="35" height="117" fill="#FBFAF4"/>
<rect x="731" y="389" width="35" height="423" fill="#FBFAF4"/>
<rect x="668" y="382" width="160" height="35" fill="#FBFAF4"/>
<rect x="668" y="329" width="160" height="35" fill="#FBFAF4"/>
</g>
<defs>
<clipPath id="clip0_471_544">
<rect width="1024" height="1024" fill="white"/>
</clipPath>
</defs>
</svg>
