<svg width="4519" height="1024" viewBox="0 0 4519 1024" fill="none" xmlns="http://www.w3.org/2000/svg">
<g clip-path="url(#clip0_473_804)">
<path d="M1619.28 591.916H1719.95C1714.93 623.903 1702.39 652.441 1682.32 677.53C1662.87 701.991 1636.22 721.434 1602.35 735.86C1568.48 749.659 1528.02 756.558 1480.98 756.558C1427.67 756.558 1380 746.836 1337.98 727.393C1295.96 707.322 1263.03 679.098 1239.19 642.719C1215.36 606.341 1203.44 563.064 1203.44 512.887C1203.44 463.338 1215.05 420.061 1238.25 383.055C1261.46 346.05 1293.45 317.512 1334.22 297.441C1375.61 277.371 1423.28 267.335 1477.22 267.335C1533.04 267.335 1579.45 277.371 1616.46 297.441C1654.09 316.885 1682 346.364 1700.19 385.878C1718.38 424.765 1725.91 474 1722.77 533.585H1309.76C1312.89 559.928 1321.36 583.762 1335.16 605.087C1349.58 625.785 1369.03 642.092 1393.49 654.009C1417.95 665.299 1446.49 670.944 1479.1 670.944C1515.48 670.944 1545.9 663.731 1570.36 649.305C1595.45 634.879 1611.76 615.75 1619.28 591.916ZM1474.4 352.008C1431.75 352.008 1396.62 362.671 1369.03 383.996C1341.43 404.694 1323.55 431.35 1315.4 463.965H1617.4C1614.89 428.841 1600.78 401.558 1575.06 382.114C1549.35 362.044 1515.79 352.008 1474.4 352.008ZM1778.28 89.5218H1882.71V746.209H1778.28V89.5218ZM2247.75 277.684L1985.26 518.532L1988.08 452.675L2267.5 746.209H2133.91L1885.53 483.722L2102.86 277.684H2247.75ZM2253.94 277.684H2585.11V363.298H2253.94V277.684ZM2366.84 151.615H2472.21V746.209H2366.84V151.615ZM3004.22 591.916H3104.89C3099.87 623.903 3087.33 652.441 3067.26 677.53C3047.82 701.991 3021.16 721.434 2987.29 735.86C2953.42 749.659 2912.97 756.558 2865.93 756.558C2812.61 756.558 2764.94 746.836 2722.92 727.393C2680.9 707.322 2647.97 679.098 2624.14 642.719C2600.3 606.341 2588.39 563.064 2588.39 512.887C2588.39 463.338 2599.99 420.061 2623.2 383.055C2646.4 346.05 2678.39 317.512 2719.16 297.441C2760.55 277.371 2808.22 267.335 2862.16 267.335C2917.98 267.335 2964.4 277.371 3001.4 297.441C3039.03 316.885 3066.95 346.364 3085.13 385.878C3103.32 424.765 3110.85 474 3107.71 533.585H2694.7C2697.83 559.928 2706.3 583.762 2720.1 605.087C2734.53 625.785 2753.97 642.092 2778.43 654.009C2802.89 665.299 2831.43 670.944 2864.04 670.944C2900.42 670.944 2930.84 663.731 2955.3 649.305C2980.39 634.879 2996.7 615.75 3004.22 591.916ZM2859.34 352.008C2816.69 352.008 2781.57 362.671 2753.97 383.996C2726.37 404.694 2708.5 431.35 2700.34 463.965H3002.34C2999.83 428.841 2985.72 401.558 2960.01 382.114C2934.29 362.044 2900.74 352.008 2859.34 352.008ZM3333.01 89.5218H3437.44V746.209H3333.01V89.5218ZM3474.94 277.684H3586.9L3776 727.393L3685.68 746.209L3474.94 277.684ZM3997.09 277.684L3696.03 934.371H3585.96L3714.85 677.53L3885.13 277.684H3997.09ZM4215.65 756.558C4172.38 756.558 4132.86 746.209 4097.11 725.511C4061.99 704.813 4034.08 676.275 4013.38 639.897C3992.68 602.892 3982.33 560.555 3982.33 512.887C3982.33 463.965 3992.37 421.315 4012.44 384.937C4033.14 347.932 4060.73 319.08 4095.23 298.382C4130.35 277.684 4170.49 267.335 4215.65 267.335C4255.17 267.335 4288.41 273.921 4315.38 287.092C4342.35 299.637 4363.67 317.198 4379.35 339.778C4395.03 361.73 4406.32 387.446 4413.22 416.925C4420.75 446.403 4424.51 478.391 4424.51 512.887C4424.51 538.603 4420.75 565.886 4413.22 594.738C4405.7 622.962 4393.78 649.305 4377.47 673.766C4361.79 698.227 4340.47 718.298 4313.5 733.978C4287.15 749.031 4254.54 756.558 4215.65 756.558ZM4247.64 670.003C4282.76 670.003 4312.56 663.417 4337.02 650.246C4362.11 636.447 4380.92 617.631 4393.47 593.797C4406.64 569.963 4413.22 542.993 4413.22 512.887C4413.22 479.645 4406.64 451.421 4393.47 428.214C4380.3 404.38 4361.48 385.878 4337.02 372.706C4312.56 359.535 4282.76 352.949 4247.64 352.949C4197.46 352.949 4158.58 368.002 4130.98 398.108C4103.38 427.587 4089.58 465.847 4089.58 512.887C4089.58 543.621 4096.17 570.904 4109.34 594.738C4123.14 618.572 4141.96 637.075 4165.79 650.246C4189.62 663.417 4216.91 670.003 4247.64 670.003ZM4413.22 89.5218H4518.59V746.209H4420.75C4419.5 731.783 4417.93 713.908 4416.05 692.583C4414.16 671.257 4413.22 652.128 4413.22 635.193V89.5218Z" fill="black"/>
<circle cx="511.996" cy="512" r="512" fill="black"/>
<rect x="260.023" y="212.032" width="35.0053" height="176.993" fill="white"/>
<rect x="260.023" y="477.021" width="35.0053" height="334.987" fill="white"/>
<rect x="198.016" y="442.023" width="160.024" height="34.9986" fill="white"/>
<rect x="198.016" y="389.025" width="160.024" height="34.9986" fill="white"/>
<rect x="496.059" y="212.032" width="35.0053" height="273.989" fill="white"/>
<rect x="496.059" y="547.018" width="35.0053" height="264.99" fill="white"/>
<rect x="434.051" y="539.019" width="160.024" height="34.9986" fill="white"/>
<rect x="434.051" y="486.021" width="160.024" height="34.9986" fill="white"/>
<rect x="732.098" y="212.032" width="35.0053" height="116.995" fill="white"/>
<rect x="732.098" y="389.025" width="35.0053" height="422.983" fill="white"/>
<rect x="669.09" y="382.025" width="160.024" height="34.9986" fill="white"/>
<rect x="669.09" y="329.027" width="160.024" height="34.9986" fill="white"/>
</g>
<defs>
<clipPath id="clip0_473_804">
<rect width="4518.87" height="1024" fill="white"/>
</clipPath>
</defs>
</svg>
